<svg xmlns="http://www.w3.org/2000/svg" viewBox="0 0 369.33 631.31"><defs><style>.cls-1,.cls-7{fill:#fff;}.cls-1{opacity:0.84;}.cls-2{fill:#ff5a5a;}.cls-3{fill:#6bddbc;}.cls-4{fill:#3a9b9b;}.cls-5{fill:#3e3d5e;}.cls-6{fill:#6d6d91;}.cls-16,.cls-8{fill:none;stroke-miterlimit:10;}.cls-8{stroke:#ffb692;stroke-linecap:round;stroke-width:14px;}.cls-9{fill:#b72c54;}.cls-10{fill:#262638;}.cls-11{fill:#ffb692;}.cls-12{fill:#d88d87;}.cls-13{fill:#34344f;}.cls-14{fill:#ff9292;}.cls-15{fill:#ffabab;}.cls-16{stroke:#3e3d5e;stroke-width:20px;}.cls-17{fill:#5b5b7f;}.cls-18{fill:#f29d7e;}</style></defs><g id="Layer_2" data-name="Layer 2"><g id="OBJECTS"><rect class="cls-1" y="132.77" width="369.33" height="498.53" rx="40.67"/><polygon class="cls-2" points="177.61 603.39 207.73 603.74 208.44 557.67 178.33 557.32 177.61 603.39"/><path class="cls-3" d="M216.51,592.52h-6.83l.31-20.25-35.73-.42-.51,33H174v14h69.73v-2.77C243.73,603.09,231.55,592.52,216.51,592.52Z"/><path class="cls-4" d="M209.29,618.9A59,59,0,0,0,174,588.82l-.25,16.06H174v14Z"/><rect class="cls-5" x="171.49" y="616.53" width="75.51" height="5.57" rx="0.99" transform="translate(418.49 1238.63) rotate(180)"/><polygon class="cls-2" points="133.18 603.39 163.29 603.74 164 557.67 133.89 557.32 133.18 603.39"/><path class="cls-3" d="M173.13,592.52h-7.89l.31-20.25-35.73-.42-.51,33h.25v14h69.73v-4.37C199.29,602.38,187.58,592.52,173.13,592.52Z"/><rect class="cls-6" x="127.05" y="616.53" width="75.51" height="5.57" rx="0.99" transform="translate(329.61 1238.63) rotate(180)"/><path class="cls-7" d="M154.06,599c0,5.07-3.53,9.18-7.88,9.18s-7.87-4.11-7.87-9.18,3.53-9.18,7.87-9.18S154.06,593.93,154.06,599Z"/><path class="cls-8" d="M207,149.72c102.85,41.47,112.71,4.15,112.71-58.78"/><path class="cls-9" d="M249.48,143.76,207,131.41c-12.15-3-25.08,3.09-28.89,13.54h0c-3.81,10.44,2.95,21.31,15.1,24.27l38.74,11.26Z"/><path class="cls-5" d="M147.24,316.21h32.28c19.54,0,35.52-13.86,35.52-30.8h0c0-11.34-10.7-20.61-23.77-20.61H135.5c-13.08,0-23.78,9.27-23.78,20.61h0C111.72,302.35,127.7,316.21,147.24,316.21Z"/><path class="cls-10" d="M134.26,264.8h58.25c8.58,0,16.08,4.22,19.88,10.38-39.69,26.63-77.85,24.06-99.57,19.07a25.27,25.27,0,0,1-1.1-7.23v-2.68C111.72,273.59,121.86,264.8,134.26,264.8Z"/><path class="cls-2" d="M215,280.68a199.19,199.19,0,0,1-59.61,7.25,198.05,198.05,0,0,1-47.56-7.25V152.42c0-15.25,14.69-27.61,32.81-27.61h33.58c22.53,0,40.78,15.36,40.78,34.31Z"/><path class="cls-11" d="M130.75,132c-.22,6.47,13.34,12.16,30.29,12.72s30.86-4.23,31.08-10.69-13.34-12.16-30.29-12.72S131,125.57,130.75,132Z"/><path class="cls-8" d="M111.47,163c-6.12,89.9-23.18,69.63-.74,160.43"/><path class="cls-9" d="M130,196.11l6.49-38.05c1.2-10.74-8.19-20-21-20.69h0c-12.79-.68-24.13,7.47-25.33,18.21l-5.72,36Z"/><path class="cls-11" d="M185.55,126.58c-.87-47.5-11.11-22.68-24.31-22.51S137,82.76,137.77,127.19c.31,16.65,11,15.07,24.17,14.9S185.85,143.22,185.55,126.58Z"/><path class="cls-12" d="M138,113.31c1.78-25.46,11.7-9.09,23.22-9.24,12.78-.16,22.79-23.44,24.2,18.2C165.13,128.32,149.17,121.81,138,113.31Z"/><path class="cls-11" d="M197.88,65.49c-2.65,6.54-.73,13.2,4.29,14.87s11.24-2.29,13.9-8.84.73-13.21-4.29-14.87S200.53,58.94,197.88,65.49Z"/><path class="cls-12" d="M203.24,67a5.22,5.22,0,0,0-2.39-.18c0-.11.07-.22.12-.33,1.75-4.33,5.86-6.94,9.18-5.84s4.58,5.5,2.83,9.82c-1.35,3.33-4.09,5.64-6.79,6C207.75,72.3,206.47,68.09,203.24,67Z"/><path class="cls-11" d="M156,18.56l21.26-.27c16.58-.22,30.37,11.38,30.63,25.76l.7,38.07c.36,20.09-18.29,36.77-41.45,37.07h0c-23.16.3-42.41-15.89-42.78-36l-.65-35.77C123.38,31.79,137.91,18.8,156,18.56Z"/><path class="cls-12" d="M128.41,32.36c33.91,36.51,65.7,21.91,79.45,12.33v-.64a22.71,22.71,0,0,0-1.32-7.18L141.88,21.58A31.68,31.68,0,0,0,128.41,32.36Z"/><path class="cls-5" d="M124.73,63.45c-24.4-27.71-.46-35.83-.46-35.83S120.64.49,151.78.26,202,13.71,202,13.71L211.5,0s17.93,16.75,1.57,32.25l19-8.74s.5,27.34-24.08,32.75l-2.4-13.56S164.79,59,140.51,37.77c0,0,8.91,26.72-9.58,32.9Z"/><path class="cls-12" d="M183.52,77.25s-11,1.88-11,3.67,5.34,2.57,6.8,1.79S183.52,77.25,183.52,77.25Z"/><path class="cls-13" d="M186.88,63.63c0,2.22,2.15,4,4.7,4s4.6-1.86,4.56-4.08-2.14-4-4.7-4S186.84,61.41,186.88,63.63Z"/><path class="cls-13" d="M153.58,64.06c0,2.22,2.15,4,4.7,4s4.6-1.86,4.56-4.08-2.15-4-4.7-4S153.54,61.84,153.58,64.06Z"/><path class="cls-12" d="M174.28,56.67a138.53,138.53,0,0,0,4.77,13.45c.91,2.2,1.81,4.4,2.82,6.57l.19.41c.08.18-.07-.12,0-.28s0,0,0,0a3.46,3.46,0,0,1-.46.52l-1.36,1.21c-.94.83-1.92,1.66-2.81,2.6a20.15,20.15,0,0,0,3.78-1.51A15.1,15.1,0,0,0,183,78.54a4.67,4.67,0,0,0,.89-.79,1.56,1.56,0,0,0,.25-.43,1.11,1.11,0,0,0,0-.7L184,76.2c-.91-2.22-1.93-4.42-2.95-6.61A143,143,0,0,0,174.28,56.67Z"/><path class="cls-13" d="M180.74,87.06a109.59,109.59,0,0,1-19-6.23c-4.36-2-9,2.67-7.11,7.21A17.24,17.24,0,0,0,168.45,99c6.43,1.13,10.77.05,13.69-1.78C186.26,94.62,185.33,88.15,180.74,87.06Z"/><path class="cls-14" d="M168.45,99A17.24,17.24,0,0,1,154.68,88a5.27,5.27,0,0,1-.4-2c2.95-.83,6.76-.91,11.67.53,7.58,2.23,10.77,7.35,12,12.35v0A23,23,0,0,1,168.45,99Z"/><path class="cls-15" d="M173,93.75c-.93,1.08-3.9.6-6.64-1.08s-4.2-3.91-3.27-5,3.9-.61,6.64,1.07S173.89,92.66,173,93.75Z"/><path class="cls-7" d="M180.74,87.06a109.59,109.59,0,0,1-19-6.23,5.3,5.3,0,0,0-6.75,2.3c3.66,3.54,9.53,6.69,16.63,8.53a47.36,47.36,0,0,0,13,1.56A5.43,5.43,0,0,0,180.74,87.06Z"/><path class="cls-11" d="M132.76,66.62c2.62,6.56.66,13.21-4.38,14.84s-11.22-2.36-13.84-8.92-.65-13.21,4.38-14.85S130.15,60.05,132.76,66.62Z"/><path class="cls-12" d="M127.4,68.12a5.22,5.22,0,0,1,2.39-.17l-.12-.33c-1.73-4.33-5.82-7-9.14-5.89s-4.62,5.47-2.9,9.8c1.33,3.34,4.06,5.66,6.76,6.07C122.85,73.37,124.16,69.17,127.4,68.12Z"/><path class="cls-16" d="M143.07,300.6s15.67,143.51,5.09,265.77"/><path class="cls-16" d="M187.71,300.6s15.67,143.51,5.1,265.77"/><path class="cls-17" d="M218.39,10.24c-7.76,13.28-22.12,26.92-48,23.91-28.23-3.29-34.58-18.28-35-30.12C125,9.92,124.06,21.1,124.15,25.64c34.69,24.25,71.07,14.1,93.77.34A18.26,18.26,0,0,0,218.39,10.24Z"/><path class="cls-11" d="M317.78,112.54c-16.53,6.74-23.68-14.92-23.68-14.92l-15-9.29s10.41-10.91,21.39-.35c0,0-2.09-19.73,4.75-26.1,3.21-3,21.75-4.29,31-1.05,2,.69,2.84,2.58,2,4.21-2.08,3.9-5.31,12-2,20.49C340.65,97.33,339,115,317.78,112.54Z"/><path class="cls-12" d="M300.45,88S314,86.22,320.26,98.52c0,0-7.79-10-19.7-9.65Z"/><path class="cls-12" d="M327.7,87.5a54.07,54.07,0,0,0-21.26-2.13S315.31,78.62,327.7,87.5Z"/><path class="cls-12" d="M323.76,86.28l-.8-.36s.9-15.79,11.12-25.71l.89.24C331.58,64.53,324.25,74.64,323.76,86.28Z"/><path class="cls-12" d="M311.53,84.12l-1.41.33s-4.73-15.31,3.53-25a70.28,70.28,0,0,1,11.57-.4C322.7,62.23,316,72.16,318,84.43l-1.12,0s-4.83-15.39,6.2-25.24l-8,.05A27.71,27.71,0,0,0,311.53,84.12Z"/><path class="cls-18" d="M132.61,320.07l10.26,2.2,5.53,1.56c3,.85,4.64,3.59,3.54,6.11l-7.83,18c0,.05-.16,0-.53-.05a9.5,9.5,0,0,1-7.07-5.54,26.1,26.1,0,0,1-12.87,3.4c-5.43-.76-8.66-5.34-6.8-9.62l4.93-11.33C123.36,321.17,128.09,319.1,132.61,320.07Z"/><path class="cls-11" d="M107.72,314.51l-3.53,1.89c-9.88,5.28-12.8,16.07-6.5,24.09h0c6.29,8,19.4,10.23,29.28,4.95l3.53-1.89c9.88-5.28,12.79-16.07,6.5-24.09h0C130.71,311.44,117.6,309.22,107.72,314.51Z"/><path class="cls-11" d="M114.69,334.13h0c-2.94.67-4.72,3.18-4,5.58l6.68,17.58c.77,2.4,3.8,3.81,6.75,3.14h0c2.94-.67,4.71-3.18,3.94-5.58l-6.67-17.57C120.67,334.88,117.63,333.46,114.69,334.13Z"/><path class="cls-11" d="M105.88,335.05h0c-3,.52-4.95,2.93-4.37,5.37l5.29,17.9c.58,2.44,3.5,4,6.48,3.5h0c3-.52,5-2.93,4.37-5.37l-5.28-17.9C111.78,336.11,108.87,334.54,105.88,335.05Z"/><path class="cls-11" d="M134,331h0c-2.94.67-4.72,3.18-3.95,5.58l6.68,17.57c.77,2.4,3.81,3.82,6.75,3.15h0c2.94-.67,4.71-3.18,3.94-5.58l-6.67-17.57C140,331.76,136.91,330.35,134,331Z"/><path class="cls-11" d="M125.16,331.94h0c-3,.51-5,2.93-4.36,5.37l5.28,17.9c.58,2.44,3.5,4,6.48,3.5h0c3-.52,4.95-2.94,4.37-5.37l-5.28-17.91C131.06,333,128.15,331.42,125.16,331.94Z"/></g></g></svg>