<svg xmlns="http://www.w3.org/2000/svg" viewBox="0 0 370.33 568.43"><defs><style>.cls-1,.cls-7{fill:#fff;}.cls-1{stroke:#000;}.cls-1,.cls-16,.cls-8{stroke-miterlimit:10;}.cls-2{fill:#ff5a5a;}.cls-3{fill:#6bddbc;}.cls-4{fill:#3a9b9b;}.cls-5{fill:#3e3d5e;}.cls-6{fill:#6d6d91;}.cls-16,.cls-8{fill:none;}.cls-8{stroke:#ffb692;stroke-linecap:round;stroke-width:14px;}.cls-9{fill:#b72c54;}.cls-10{fill:#262638;}.cls-11{fill:#ffb692;}.cls-12{fill:#d88d87;}.cls-13{fill:#34344f;}.cls-14{fill:#ff9292;}.cls-15{fill:#ffabab;}.cls-16{stroke:#3e3d5e;stroke-width:20px;}.cls-17{fill:#5b5b7f;}.cls-18{fill:#f29d7e;}</style></defs><g id="Layer_2" data-name="Layer 2"><g id="OBJECTS"><rect class="cls-1" x="0.5" y="69.4" width="369.33" height="498.53" rx="40.67"/><polygon class="cls-2" points="183.15 534.91 211.99 535.22 212.68 494.39 183.84 494.07 183.15 534.91"/><path class="cls-3" d="M220.4,525.28h-6.54l.3-18L179.94,507l-.48,29.29h.24v12.42h66.77v-2.45C246.47,534.65,234.8,525.28,220.4,525.28Z"/><path class="cls-4" d="M213.49,548.66c-4.73-8.66-14.56-21-33.8-26.67l-.23,14.25h.24v12.42Z"/><rect class="cls-5" x="177.29" y="546.56" width="72.31" height="4.94" rx="0.99" transform="translate(426.89 1098.06) rotate(180)"/><polygon class="cls-2" points="140.6 534.91 169.44 535.22 170.12 494.39 141.28 494.07 140.6 534.91"/><path class="cls-3" d="M178.86,525.28H171.3l.3-18L137.39,507l-.49,29.29h.24v12.42h66.77v-3.87C203.91,534,192.7,525.28,178.86,525.28Z"/><rect class="cls-6" x="134.74" y="546.56" width="72.31" height="4.94" rx="0.99" transform="translate(341.78 1098.06) rotate(180)"/><path class="cls-7" d="M160.6,531c0,4.49-3.38,8.14-7.54,8.14s-7.55-3.65-7.55-8.14,3.38-8.14,7.55-8.14S160.6,526.53,160.6,531Z"/><path class="cls-8" d="M211.27,132.73c98.49,36.76,107.93,3.68,107.93-52.11"/><path class="cls-9" d="M252,127.45l-40.73-11c-11.63-2.63-24,2.75-27.66,12h0c-3.64,9.25,2.83,18.89,14.46,21.52l37.1,10Z"/><path class="cls-5" d="M154.06,280.33H185c18.71,0,34-12.29,34-27.31h0c0-10.05-10.24-18.27-22.76-18.27H142.82c-12.52,0-22.77,8.22-22.77,18.27h0C120.05,268,135.36,280.33,154.06,280.33Z"/><path class="cls-10" d="M141.63,234.75h55.79c8.22,0,15.39,3.74,19,9.2a128.27,128.27,0,0,1-95.35,16.9,20.83,20.83,0,0,1-1-6.4v-2.38C120.05,242.54,129.76,234.75,141.63,234.75Z"/><path class="cls-2" d="M219,248.83a205.27,205.27,0,0,1-57.09,6.42,203.72,203.72,0,0,1-45.55-6.42V135.12c0-13.51,14.07-24.47,31.43-24.47h32.16c21.56,0,39,13.62,39,30.41Z"/><path class="cls-11" d="M138.28,117.05c-.21,5.73,12.77,10.78,29,11.27s29.55-3.74,29.76-9.47-12.77-10.78-29-11.28S138.49,111.32,138.28,117.05Z"/><path class="cls-8" d="M119.81,144.48c-5.86,79.69-22.2,61.72-.71,142.22"/><path class="cls-9" d="M137.54,173.86l6.21-33.74c1.15-9.52-7.84-17.73-20.09-18.34h0c-12.25-.6-23.11,6.62-24.26,16.14l-5.47,31.93Z"/><path class="cls-11" d="M190.75,112.21c-.83-42.11-10.64-20.1-23.27-19.95S144.22,73.37,145,112.76c.29,14.76,10.51,13.36,23.14,13.21S191,127,190.75,112.21Z"/><path class="cls-12" d="M145.24,100.45c1.71-22.57,11.2-8.06,22.24-8.19,12.23-.15,21.82-20.78,23.17,16.13C171.2,113.76,155.92,108,145.24,100.45Z"/><path class="cls-11" d="M202.56,58.05c-2.54,5.81-.7,11.71,4.11,13.19s10.77-2,13.31-7.84.7-11.71-4.11-13.18S205.1,52.25,202.56,58.05Z"/><path class="cls-12" d="M207.69,59.42a5.34,5.34,0,0,0-2.29-.17l.12-.29c1.68-3.83,5.61-6.15,8.79-5.18s4.39,4.88,2.71,8.71a8.81,8.81,0,0,1-6.5,5.34C212,64.1,210.79,60.37,207.69,59.42Z"/><path class="cls-11" d="M162.42,16.46l20.35-.25c15.89-.19,29.09,10.09,29.34,22.84l.67,33.75c.35,17.81-17.51,32.6-39.69,32.86h0c-22.18.27-40.61-14.09-41-31.89l-.63-31.71C131.22,28.18,145.13,16.66,162.42,16.46Z"/><path class="cls-12" d="M136,28.68C168.51,61.06,199,48.11,212.12,39.62v-.57a18.76,18.76,0,0,0-1.27-6.36L148.93,19.13A30,30,0,0,0,136,28.68Z"/><path class="cls-5" d="M132.51,56.25c-23.36-24.56-.44-31.76-.44-31.76S128.6.44,158.41.23s48.06,11.92,48.06,11.92L215.61,0s17.17,14.85,1.5,28.59l18.22-7.75s.48,24.23-23.05,29l-2.3-12s-39.1,14.47-62.35-4.38c0,0,8.53,23.69-9.18,29.17Z"/><path class="cls-12" d="M188.81,68.48s-10.49,1.67-10.51,3.26,5.12,2.28,6.52,1.58S188.81,68.48,188.81,68.48Z"/><path class="cls-13" d="M192,56.41c0,2,2.05,3.54,4.5,3.51s4.41-1.65,4.37-3.62-2.06-3.53-4.51-3.51S192,54.44,192,56.41Z"/><path class="cls-13" d="M160.14,56.79c0,2,2.05,3.54,4.5,3.51s4.41-1.65,4.37-3.62-2.06-3.53-4.51-3.5S160.1,54.82,160.14,56.79Z"/><path class="cls-12" d="M180,50.24a113.87,113.87,0,0,0,4.57,11.92c.87,2,1.73,3.9,2.7,5.83l.18.36c.08.16-.07-.11,0-.25s0,0,0,0a2.86,2.86,0,0,1-.44.46l-1.31,1.07c-.9.74-1.83,1.47-2.69,2.31a20.4,20.4,0,0,0,3.63-1.35,13.8,13.8,0,0,0,1.67-.93,4.17,4.17,0,0,0,.85-.7,1.25,1.25,0,0,0,.24-.38.91.91,0,0,0,0-.63l-.16-.37c-.87-2-1.85-3.91-2.82-5.86A124.94,124.94,0,0,0,180,50.24Z"/><path class="cls-13" d="M186.14,77.18A111.1,111.1,0,0,1,168,71.66c-4.17-1.74-8.58,2.36-6.81,6.39,1.89,4.29,5.67,8.49,13.19,9.71,6.16,1,10.31,0,13.1-1.58A4.85,4.85,0,0,0,186.14,77.18Z"/><path class="cls-14" d="M174.38,87.76c-7.52-1.22-11.3-5.42-13.19-9.71a4.7,4.7,0,0,1-.39-1.79,21.52,21.52,0,0,1,11.18.47c7.26,2,10.32,6.52,11.47,11a0,0,0,0,0,0,0A24.11,24.11,0,0,1,174.38,87.76Z"/><path class="cls-15" d="M178.7,83.11c-.89,1-3.74.53-6.36-1s-4-3.47-3.14-4.43,3.74-.54,6.36,1S179.59,82.15,178.7,83.11Z"/><path class="cls-7" d="M186.14,77.18A111.1,111.1,0,0,1,168,71.66a5.26,5.26,0,0,0-6.46,2c3.5,3.14,9.13,5.92,15.92,7.56a49,49,0,0,0,12.48,1.38A4.8,4.8,0,0,0,186.14,77.18Z"/><path class="cls-11" d="M140.2,59.06c2.51,5.82.63,11.71-4.19,13.16s-10.75-2.09-13.26-7.91-.62-11.71,4.2-13.16S137.7,53.24,140.2,59.06Z"/><path class="cls-12" d="M135.06,60.39a5.36,5.36,0,0,1,2.29-.15c0-.1-.07-.19-.11-.29-1.65-3.85-5.57-6.19-8.76-5.23s-4.42,4.85-2.77,8.7a8.85,8.85,0,0,0,6.47,5.37C130.71,65.05,132,61.32,135.06,60.39Z"/><path class="cls-16" d="M150.07,266.49s15,127.22,4.88,235.61"/><path class="cls-16" d="M192.83,266.49s15,127.22,4.87,235.61"/><path class="cls-17" d="M222.2,9.08c-7.43,11.77-21.18,23.86-46,21.19-27-2.91-33.11-16.2-33.52-26.7-10,5.22-10.85,15.14-10.77,19.16,33.23,21.5,68.06,12.5,89.8.3A15.09,15.09,0,0,0,222.2,9.08Z"/><path class="cls-11" d="M317.38,99.76c-15.83,6-22.67-13.22-22.67-13.22L280.3,78.31s10-9.68,20.49-.32c0,0-2-17.48,4.54-23.13,3.08-2.66,20.84-3.8,29.66-.93,1.88.61,2.73,2.28,1.9,3.73-2,3.46-5.09,10.65-2,18.16C339.28,86.29,337.69,101.93,317.38,99.76Z"/><path class="cls-12" d="M300.79,78s12.94-1.56,19,9.35c0,0-7.45-8.87-18.86-8.56Z"/><path class="cls-12" d="M326.88,77.57a55.77,55.77,0,0,0-20.35-1.89S315,69.7,326.88,77.57Z"/><path class="cls-12" d="M323.11,76.49l-.77-.32s.86-14,10.65-22.79l.85.21C330.6,57.21,323.58,66.17,323.11,76.49Z"/><path class="cls-12" d="M311.39,74.57l-1.34.29s-4.53-13.57,3.38-22.18a71.2,71.2,0,0,1,11.07-.36c-2.41,2.85-8.85,11.65-6.9,22.53l-1.08,0s-4.61-13.64,5.94-22.37l-7.61,0A23.17,23.17,0,0,0,311.39,74.57Z"/><path class="cls-18" d="M140.06,283.75l9.82,1.95,5.3,1.38c2.92.76,4.44,3.18,3.39,5.42l-7.5,16c0,.05-.16,0-.51,0a9,9,0,0,1-6.77-4.91,26.59,26.59,0,0,1-12.32,3c-5.2-.67-8.3-4.73-6.51-8.53l4.72-10C131.2,284.72,135.73,282.89,140.06,283.75Z"/><path class="cls-11" d="M116.22,278.82l-3.38,1.67c-9.47,4.68-12.25,14.25-6.23,21.36h0c6,7.11,18.58,9.07,28.05,4.39l3.38-1.68c9.46-4.68,12.25-14.24,6.22-21.35h0C138.24,276.1,125.68,274.13,116.22,278.82Z"/><path class="cls-11" d="M122.89,296.21h0c-2.81.6-4.51,2.82-3.77,5l6.39,15.58c.74,2.13,3.64,3.38,6.46,2.79h0c2.82-.59,4.52-2.82,3.78-4.95L129.36,299C128.62,296.87,125.71,295.62,122.89,296.21Z"/><path class="cls-11" d="M114.46,297h0c-2.86.45-4.74,2.6-4.18,4.76l5.06,15.87c.56,2.16,3.35,3.56,6.21,3.1h0c2.86-.46,4.74-2.6,4.18-4.76l-5.06-15.87C120.11,298,117.32,296.57,114.46,297Z"/><path class="cls-11" d="M141.36,293.45h0c-2.82.6-4.52,2.82-3.78,4.95L144,314c.74,2.13,3.65,3.38,6.46,2.79h0c2.82-.59,4.52-2.82,3.78-4.95l-6.39-15.58C147.08,294.11,144.17,292.86,141.36,293.45Z"/><path class="cls-11" d="M132.92,294.27h0c-2.85.45-4.73,2.6-4.18,4.76l5.06,15.87c.56,2.16,3.36,3.56,6.21,3.1h0c2.86-.46,4.74-2.6,4.18-4.76l-5.06-15.87C138.58,295.21,135.78,293.81,132.92,294.27Z"/></g></g></svg>