<svg xmlns="http://www.w3.org/2000/svg" viewBox="0 0 359.99 385.93"><defs><style>.cls-1{fill:#dceaf5;}.cls-2{fill:#70c7bf;}.cls-3{fill:#54aba3;}.cls-15,.cls-4{fill:none;stroke-linecap:round;stroke-linejoin:round;stroke-width:1px;}.cls-4{stroke:#000;}.cls-5{fill:#06909b;}.cls-6{fill:#107a78;}.cls-7{fill:#ffa800;}.cls-8{fill:#ff8b00;}.cls-14,.cls-9{fill:#dc7e4a;}.cls-10{fill:#f9a670;}.cls-11{fill:#006ab8;}.cls-12{fill:#111d37;}.cls-13{fill:#091323;}.cls-14{opacity:0.5;}.cls-15{stroke:#fff;}.cls-16{fill:#94cee2;}.cls-17{fill:#ffcc06;}</style></defs><g id="Layer_2" data-name="Layer 2"><g id="OBJECTS"><path class="cls-1" d="M50.3,359.78H346.84a550.3,550.3,0,0,0-34.34-56.15c-19.63-27.8-11.08-65.09.54-79,24.54-29.44,80.31-139.8-37.06-157-85.59-12.53-86.68,69.24-141.19,88.31S30.67,192.43,29,252.94,50.3,359.78,50.3,359.78Z"/><path class="cls-2" d="M263.22,359.61s-14-55,12.66-82.29,53.3,5.33,32,19.33-23.32,24.65-20,26,44-28,52,4-33.81,9.66-48.64,16c-11.93,5.1-8.66,17-8.66,17Z"/><path class="cls-3" d="M263.22,359.61h19.32s-3.27-11.89,8.66-17a14,14,0,0,1,1.86-.61c-11.88-4.67-23.62-10.22-33.45-18.43A144.83,144.83,0,0,0,263.22,359.61Z"/><path class="cls-4" d="M270.88,359.53c-6.82-19.71,1.86-43.8,17.49-57"/><path class="cls-4" d="M277.62,344.79c7.34-10.62,20.93-17,34-17.24"/><path class="cls-5" d="M136.49,359.61s17-66.8-15.38-100-64.78,6.48-38.87,23.48,28.34,30,24.29,31.58-53.44-34-63.16,4.86,41.1,11.74,59.11,19.43C117,345.16,113,359.61,113,359.61Z"/><path class="cls-6" d="M136.49,359.61H113s4-14.45-10.53-20.65a15,15,0,0,0-2.26-.74c14.44-5.68,28.71-12.42,40.66-22.4A176.51,176.51,0,0,1,136.49,359.61Z"/><path class="cls-4" d="M127.18,359.51c8.29-23.95-2.26-53.23-21.26-69.23"/><path class="cls-4" d="M119,341.6c-8.91-12.9-25.43-20.7-41.3-21"/><path class="cls-5" d="M243.68,354.37s-12.83-73.87,11-102.67,30.67-5.6,14.95,18.94S244.8,333.4,243.68,354.37Z"/><path class="cls-6" d="M240.61,298.77c-1.71,28,3.07,55.6,3.07,55.6.6-11.23,3.5-27.4,8.47-43.78C248.15,306.65,244.22,302.83,240.61,298.77Z"/><path class="cls-4" d="M243.89,351.29c-2.77-27.45,2.59-59.29,14-84.46"/><path class="cls-7" d="M167.18,340.79c.66-.9,2-31.48.75-32.73s-53.47,4.5-55.22-8,31.73-58,31.73-58L129.2,203.36s-72,90.46-56.72,114.69S165.18,343.54,167.18,340.79Z"/><path class="cls-8" d="M167.93,308.06c-.84-.84-24.81,1.49-40.9-.72a352,352,0,0,1-22.72,28.24c27.46,7.09,61.55,7,62.87,5.21C167.84,339.89,169.18,309.31,167.93,308.06Z"/><line class="cls-4" x1="155.19" y1="311.56" x2="155.19" y2="338.54"/><path class="cls-9" d="M269.45,123c.65,3.8,21.54,3.32,23.9,5.21s10.89,9,13.73,9.23,21.77-10.89,21.77-12.07-2.61-20.35-6.16-24.85-34.31,3.08-34.31,3.08l1.19,7.1S266.38,105,269.45,123Z"/><path class="cls-10" d="M287.67,101.67C289.26,95.13,318,86.52,323.17,91s4,23.43,1.18,27-17,9.23-21.53,6.63S285.78,109.48,287.67,101.67Z"/><line class="cls-4" x1="309.44" y1="123.91" x2="295.72" y2="96.7"/><line class="cls-4" x1="316.07" y1="122.02" x2="304.71" y2="92.68"/><line class="cls-4" x1="322.22" y1="118.7" x2="314.18" y2="91.49"/><path class="cls-7" d="M242.39,162.38c2,.5,32.24,55.48,61.47,35.74s-4.5-60.22-4-62.22,30.24-15.74,31.74-14.49,34.73,71.71-2.5,102.44-83-11-83-11Z"/><path class="cls-8" d="M242.39,162.38l3.75,50.48s27.2,24.81,56.72,22.07c-4.4-10.78-8.89-21.51-12.32-32.54C266.07,202.37,244.09,162.81,242.39,162.38Z"/><line class="cls-4" x1="310.11" y1="148.14" x2="334.59" y2="138.4"/><polygon class="cls-11" points="174.68 359.78 247.39 359.78 243.39 347.54 177.18 346.04 174.68 359.78"/><path class="cls-12" d="M144.19,125.9s-22.73-36.23-17.74-49.72c3.66-9.88,19.24-7.5,20.49-9.74S155.19,44,175.68,42s20,12.24,22.49,11,13.49-9,17-5.24-5,9.74-3,11,9.74-3.5,13.49,2.25-6.25,11.49-6,12.74,8.75.75,10,5.25-15.74,38.23-15.74,38.23Z"/><path class="cls-13" d="M226.44,75.81c-29.52,19.28-70.82,19.77-99.91.2l-.08.17c-5,13.49,17.74,49.72,17.74,49.72l69.72-8.74s17-33.73,15.74-38.23A5.06,5.06,0,0,0,226.44,75.81Z"/><path class="cls-9" d="M146.28,116.91s-5.33-15.33-15.66-10.33S124,132.4,138,134.07,146.94,119.91,146.28,116.91Z"/><path class="cls-4" d="M131.62,109.58c5.56,0,8,7.43,9.5,13.51-7.69,0-5.47,4.16,1.39,5.65"/><path class="cls-9" d="M210.64,114.16S211.77,98,223,100.09s13.2,23.17.13,28.44S210.78,117.23,210.64,114.16Z"/><path class="cls-4" d="M222.86,103.24c-5.36,1.48-5.73,9.26-5.63,15.53,7.42-2,6.37,2.58.14,5.82"/><path class="cls-9" d="M176.18,160.89s2.5,15.49,1.5,16.49-7,5.24-7,5.24,10.75,11.25,20,8.25,12-14.74,12-14.74-9.49-1-9.49-2.25-3-16-3-16Z"/><path class="cls-10" d="M215.21,126.73l-3.07-29.6A33.69,33.69,0,0,0,184,67.34c-1.56,4.8-3.41,7.83-6.55,9.09-4,2.39-9.1-1.84-12.33-7.6a33.69,33.69,0,0,0-23.33,35.59l3.06,29.6a33.69,33.69,0,0,0,37,30l3.35-.34A33.71,33.71,0,0,0,215.21,126.73Z"/><path class="cls-14" d="M165.93,126.9a10,10,0,1,1-10-10A10,10,0,0,1,165.93,126.9Z"/><path class="cls-14" d="M213.74,124.07a10,10,0,1,1-10-10A10,10,0,0,1,213.74,124.07Z"/><line class="cls-4" x1="157.6" y1="131.23" x2="178.76" y2="141.4"/><line class="cls-4" x1="182.42" y1="140.73" x2="202.91" y2="129.57"/><line class="cls-4" x1="176.43" y1="145.39" x2="185.09" y2="144.89"/><path class="cls-13" d="M170.06,115a1.82,1.82,0,0,1-1.82,1.81h0a1.81,1.81,0,0,1-1.81-1.81v-6.24a1.81,1.81,0,0,1,1.81-1.82h0a1.82,1.82,0,0,1,1.82,1.82Z"/><path class="cls-13" d="M191,115a1.81,1.81,0,0,1-1.81,1.81h0a1.81,1.81,0,0,1-1.81-1.81v-6.24a1.81,1.81,0,0,1,1.81-1.82h0a1.81,1.81,0,0,1,1.81,1.82Z"/><path class="cls-13" d="M158.26,100.64c-.41,2.2,3.3-.22,15.63,0,1.42,0,1.68-6.93-.46-7.71S159.58,93.52,158.26,100.64Z"/><path class="cls-13" d="M200,100.14c.41,2.2-3.3-.22-15.63,0-1.41,0-1.68-6.93.46-7.71S198.63,93,200,100.14Z"/><path class="cls-9" d="M184.41,127.33,182,124.87l-1.43-21.76a1.7,1.7,0,0,0-3.39,0l-1.43,21.76-2.45,2.46a.85.85,0,0,0,0,1.21l5,5a.88.88,0,0,0,1.22,0l5-5A.85.85,0,0,0,184.41,127.33Z"/><line class="cls-4" x1="172.43" y1="128.28" x2="177.55" y2="133.28"/><line class="cls-4" x1="179.8" y1="133.65" x2="184.55" y2="129.03"/><path class="cls-4" d="M184.17,66.31a13,13,0,0,1,8.5-7.12"/><path class="cls-4" d="M220.9,98.29a85.93,85.93,0,0,1,3.5-8.87"/><path class="cls-4" d="M131,94.55a93.4,93.4,0,0,1,3.62,10.61"/><path class="cls-15" d="M189.17,45.57a24.19,24.19,0,0,1,4.12,6.37"/><path class="cls-15" d="M205.79,50.19a37.94,37.94,0,0,1,4.74-1.87"/><path class="cls-15" d="M175.8,129.15c1.85,1.3,3.83,1.18,5.25-.62"/><path class="cls-16" d="M102.68,124.08c.31-.44-12.92-8.1-16.51-10.16a16.27,16.27,0,0,0,.17-1.86,15.71,15.71,0,1,0-2.41,7.85C88.68,121.1,102.38,124.5,102.68,124.08Z"/><path class="cls-4" d="M58,111.25c.13,9.33,5.62,13.89,15,13"/><path class="cls-16" d="M99,59.62a31.24,31.24,0,0,0,1.66-3.08,29.24,29.24,0,1,0-9.87,11.74c7.29,5.53,28.29,21.35,29.1,20.85S103.64,65.81,99,59.62Z"/><line class="cls-4" x1="92.62" y1="66.01" x2="115.94" y2="85"/><path class="cls-4" d="M67.3,69a31.81,31.81,0,0,0,22-2.66"/><path class="cls-16" d="M144.57,169.08c.21-1.55-44.09-3.23-56.18-3.66a45.47,45.47,0,1,0,2.44,18.42C104.68,180.43,144.38,170.55,144.57,169.08Z"/><line class="cls-4" x1="91.07" y1="180.16" x2="134.43" y2="170.19"/><path class="cls-4" d="M79.27,205.39a33.08,33.08,0,0,0,7.64-20.63"/><path class="cls-16" d="M250.59,4.43a15.66,15.66,0,1,0-21.83,22.46,16.21,16.21,0,0,0,1.42,1.21c-1.14,4-5.32,18.69-4.79,18.79s8-11.88,10.56-16A15.65,15.65,0,0,0,250.59,4.43Z"/><line class="cls-4" x1="229.34" y1="39.14" x2="234.6" y2="29.76"/><path class="cls-4" d="M236.85,28.92a11.88,11.88,0,0,0,12.52-5.3"/><path class="cls-16" d="M320.39,40.4a29.21,29.21,0,0,0-55.3,18.86,30.8,30.8,0,0,0,1.33,3.23c-5.28,5.67-24.64,26.57-23.85,27.18s23.29-13,31.11-17.71A29.21,29.21,0,0,0,320.39,40.4Z"/><line class="cls-4" x1="250.48" y1="83.06" x2="271.14" y2="69.86"/><path class="cls-4" d="M276.4,70.07a25.65,25.65,0,0,0,22.49,4.58"/><path class="cls-17" d="M162.94,181.37c4.23-3,17.24,7.5,25.48,3.75s7.75-13.49,13.24-14.74,7,2.5,7,2.5,30.73-14.24,33.73-10.5,10.25,48.23,5,88.21-10.74,59.72-10.74,61,10.74,40.47,9.49,43-70,2.25-71.46-1,2.75-39,1.5-42.22-52-98.45-47.73-106.7,32.49-17,33.24-17.24S159.44,183.87,162.94,181.37Z"/><path class="cls-7" d="M166.41,292.11c5.49,10.75,9.43,18.32,9.77,19.2,1.25,3.24-5.41,40.42-3.91,43.67s74.79,2.33,76-.17-11.66-42-11.66-43.25c0-1,3.42-13.5,7.44-38.36C222,288.06,193.76,293.06,166.41,292.11Z"/><line class="cls-4" x1="177.43" y1="251.34" x2="226.65" y2="268.08"/><line class="cls-4" x1="206.59" y1="250.53" x2="222.33" y2="224.79"/><path class="cls-4" d="M173.61,192.77c12.51,3.45,26.94-.07,33-12.15"/><path class="cls-10" d="M166.6,307.52c2.2-1.86,36.82-.67,38.83,3s4.35,27.79,1.68,29.46-34.49,11.38-41.52,2.35S160.24,312.87,166.6,307.52Z"/><line class="cls-4" x1="179.99" y1="336.31" x2="206.1" y2="334.3"/><line class="cls-4" x1="178.31" y1="326.6" x2="206.44" y2="326.6"/><line class="cls-4" x1="178.31" y1="315.55" x2="204.76" y2="317.56"/><path class="cls-5" d="M360,369.42c0,9.11-16.85,16.51-37.62,16.51H63.73c-20.78,0-37.62-7.4-37.62-16.51h0c0-9.12,16.84-16.51,37.62-16.51H322.37c20.77,0,37.62,7.39,37.62,16.51Z"/></g></g></svg>