<svg xmlns="http://www.w3.org/2000/svg" viewBox="0 0 137.46 400.11"><defs><style>.cls-1{fill:#ff5a5a;}.cls-2{fill:#6bddbc;}.cls-3{fill:#3a9b9b;}.cls-4{fill:#3e3d5e;}.cls-5{fill:#6d6d91;}.cls-6{fill:#fff;}.cls-15,.cls-7{fill:none;stroke-miterlimit:10;}.cls-7{stroke:#ffb692;stroke-linecap:round;stroke-width:14px;}.cls-8{fill:#b72c54;}.cls-9{fill:#262638;}.cls-10{fill:#ffb692;}.cls-11{fill:#d88d87;}.cls-12{fill:#34344f;}.cls-13{fill:#ff9292;}.cls-14{fill:#ffabab;}.cls-15{stroke:#3e3d5e;stroke-width:20px;}.cls-16{fill:#5b5b7f;}.cls-17{fill:#f29d7e;}</style></defs><g id="Layer_2" data-name="Layer 2"><g id="OBJECTS"><rect class="cls-1" x="70.56" y="358.56" width="16.3" height="29.63" transform="translate(-5.16 1.12) rotate(-0.79)"/><path class="cls-2" d="M66,381.09h3.7l-.17-13,19.33-.27L89.14,389H89v9H51.27v-1.78A15,15,0,0,1,66,381.09Z"/><path class="cls-3" d="M69.91,398.05c2.66-6.28,8.22-15.21,19.09-19.35L89.14,389H89v9Z"/><rect class="cls-4" x="49.5" y="396.53" width="40.86" height="3.58" rx="0.99"/><rect class="cls-1" x="94.6" y="358.56" width="16.3" height="29.63" transform="translate(-5.16 1.46) rotate(-0.79)"/><path class="cls-2" d="M89.47,381.09h4.27l-.17-13,19.34-.27.27,21.25h-.13v9H75.32v-2.81A14.15,14.15,0,0,1,89.47,381.09Z"/><rect class="cls-5" x="73.55" y="396.53" width="40.86" height="3.58" rx="0.99"/><path class="cls-6" d="M99.79,385.25c0,3.26,1.91,5.9,4.26,5.9s4.26-2.64,4.26-5.9-1.9-5.9-4.26-5.9S99.79,382,99.79,385.25Z"/><path class="cls-7" d="M71.16,96.3c-55.65,26.66-61,2.66-61-37.81"/><path class="cls-8" d="M48.16,92.46l23-7.95A12.8,12.8,0,0,1,86.8,93.22h0a12.33,12.33,0,0,1-8.17,15.62l-21,7.24Z"/><path class="cls-4" d="M103.48,203.37H86c-10.57,0-19.22-8.91-19.22-19.8h0a13.1,13.1,0,0,1,12.87-13.26h30.18a13.1,13.1,0,0,1,12.86,13.26h0C122.7,194.46,114.05,203.37,103.48,203.37Z"/><path class="cls-9" d="M110.51,170.31H79A12.17,12.17,0,0,0,68.23,177c21.48,17.12,42.12,15.47,53.88,12.26a19.23,19.23,0,0,0,.59-4.65v-1.73A12.42,12.42,0,0,0,110.51,170.31Z"/><path class="cls-1" d="M66.8,180.52a91.48,91.48,0,0,0,58,0V98A17.76,17.76,0,0,0,107,80.27H88.87A22.07,22.07,0,0,0,66.8,102.34Z"/><path class="cls-10" d="M112.4,84.92c.12,4.16-7.22,7.82-16.39,8.18S79.32,90.38,79.2,86.22,86.42,78.4,95.59,78,112.28,80.76,112.4,84.92Z"/><path class="cls-7" d="M122.84,104.82c3.31,57.81,12.54,44.78.4,103.18"/><path class="cls-8" d="M112.82,126.13l-3.51-24.48a12.11,12.11,0,0,1,11.35-13.3h0a13,13,0,0,1,13.71,11.71l3.09,23.17Z"/><path class="cls-10" d="M82.75,81.41c.47-30.55,6-14.59,13.15-14.48S109,53.23,108.6,81.81c-.16,10.7-5.93,9.69-13.07,9.58S82.59,92.11,82.75,81.41Z"/><path class="cls-11" d="M108.47,72.88c-1-16.38-6.33-5.85-12.57-5.95C89,66.83,83.57,51.86,82.81,78.64,93.8,82.53,102.43,78.34,108.47,72.88Z"/><path class="cls-10" d="M76.08,42.12c1.43,4.21.39,8.49-2.32,9.56S67.67,50.21,66.24,46s-.4-8.5,2.32-9.57S74.64,37.91,76.08,42.12Z"/><path class="cls-11" d="M73.18,43.11A2.27,2.27,0,0,1,74.47,43l-.06-.21c-1-2.79-3.17-4.47-5-3.76S67,42.56,67.91,45.34c.73,2.14,2.21,3.62,3.67,3.87C70.74,46.5,71.43,43.8,73.18,43.11Z"/><path class="cls-10" d="M98.76,11.94l-11.5-.18c-9-.14-16.43,7.32-16.58,16.57l-.37,24.49c-.2,12.92,9.89,23.64,22.43,23.84h0c12.53.19,23-10.22,23.14-23.14l.36-23C116.39,20.45,108.53,12.09,98.76,11.94Z"/><path class="cls-11" d="M113.67,20.81c-18.35,23.49-35.55,14.09-43,7.93v-.41a17.63,17.63,0,0,1,.72-4.62l35-9.83A18.14,18.14,0,0,1,113.67,20.81Z"/><path class="cls-4" d="M115.66,40.81c13.2-17.82.25-23,.25-23S117.87.32,101,.17,73.87,8.82,73.87,8.82L68.71,0S59,10.77,67.86,20.74l-10.3-5.62s-.27,17.58,13,21.06l1.3-8.72S94,38,107.12,24.29c0,0-4.82,17.19,5.19,21.16Z"/><path class="cls-11" d="M83.85,49.68s5.93,1.22,5.94,2.37-2.89,1.65-3.68,1.14S83.85,49.68,83.85,49.68Z"/><path class="cls-12" d="M82,40.92a2.51,2.51,0,1,1-2.46-2.62A2.55,2.55,0,0,1,82,40.92Z"/><path class="cls-12" d="M100.05,41.2a2.51,2.51,0,1,1-2.46-2.62A2.55,2.55,0,0,1,100.05,41.2Z"/><path class="cls-11" d="M88.85,36.45c-.71,2.95-1.62,5.81-2.58,8.65-.49,1.41-1,2.83-1.53,4.22l-.1.27c0,.11,0-.08,0-.18s0,0,0,0a2.19,2.19,0,0,0,.25.33l.74.78c.51.54,1,1.07,1.52,1.68a9.66,9.66,0,0,1-2.05-1,7.36,7.36,0,0,1-.94-.67,2.66,2.66,0,0,1-.48-.51,1,1,0,0,1-.14-.28.85.85,0,0,1,0-.45L83.6,49c.49-1.43,1-2.84,1.6-4.25C86.31,41.94,87.49,39.15,88.85,36.45Z"/><path class="cls-12" d="M85.36,56a53.19,53.19,0,0,0,10.25-4c2.36-1.26,4.85,1.71,3.85,4.64-1.07,3.11-3.21,6.15-7.46,7-3.48.72-5.82,0-7.4-1.15C82.37,60.86,82.87,56.7,85.36,56Z"/><path class="cls-13" d="M92,63.67c4.25-.89,6.39-3.93,7.46-7a4,4,0,0,0,.21-1.31,9.61,9.61,0,0,0-6.31.35c-4.1,1.43-5.83,4.72-6.48,7.94v0A10.66,10.66,0,0,0,92,63.67Z"/><path class="cls-14" d="M89.56,60.29c.51.7,2.11.39,3.6-.69s2.27-2.51,1.77-3.21-2.11-.39-3.59.69S89.06,59.6,89.56,60.29Z"/><path class="cls-6" d="M85.36,56a53.19,53.19,0,0,0,10.25-4c1.45-.78,2.94,0,3.65,1.48a19.75,19.75,0,0,1-9,5.48,21.48,21.48,0,0,1-7.05,1C83,58.25,83.79,56.44,85.36,56Z"/><path class="cls-10" d="M111.31,42.85c-1.41,4.22-.35,8.49,2.37,9.54s6.08-1.51,7.49-5.74.36-8.49-2.36-9.54S112.73,38.62,111.31,42.85Z"/><path class="cls-11" d="M114.22,43.81a2.37,2.37,0,0,0-1.29-.11,1.66,1.66,0,0,1,.06-.21c.93-2.79,3.15-4.48,5-3.79s2.5,3.52,1.56,6.31c-.72,2.14-2.19,3.64-3.65,3.9C116.68,47.19,116,44.49,114.22,43.81Z"/><path class="cls-15" d="M105.74,193.33S97.26,285.64,103,364.27"/><path class="cls-15" d="M81.58,193.33s-8.48,92.31-2.76,170.94"/><path class="cls-16" d="M65,6.59C69.18,15.12,77,23.9,91,22c15.28-2.11,18.71-11.75,18.94-19.37,5.64,3.79,6.14,11,6.09,13.9-18.78,15.6-38.46,9.07-50.74.22A13.73,13.73,0,0,1,65,6.59Z"/><path class="cls-10" d="M11.2,72.38c9,4.34,12.81-9.59,12.81-9.59l8.14-6s-5.63-7-11.57-.23c0,0,1.13-12.68-2.57-16.78C16.27,37.87,6.24,37,1.25,39.12A2,2,0,0,0,.18,41.83C1.31,44.34,3.05,49.56,1.29,55-1.17,62.6-.27,74,11.2,72.38Z"/><path class="cls-11" d="M20.58,56.58s-7.31-1.13-10.72,6.78c0,0,4.21-6.43,10.66-6.2Z"/><path class="cls-11" d="M5.83,56.28a24.94,24.94,0,0,1,11.5-1.37S12.53,50.56,5.83,56.28Z"/><path class="cls-11" d="M8,55.49l.43-.23s-.49-10.15-6-16.53l-.48.15C3.73,41.5,7.7,48,8,55.49Z"/><path class="cls-11" d="M14.58,54.1l.76.21s2.56-9.84-1.91-16.09A31.79,31.79,0,0,0,7.18,38a24.6,24.6,0,0,1,3.9,16.34l.6,0s2.61-9.9-3.35-16.23l4.3,0A20.43,20.43,0,0,1,14.58,54.1Z"/><path class="cls-17" d="M111.4,205.86l-5.55,1.41-3,1a3,3,0,0,0-1.91,3.93l4.23,11.58s.09,0,.29,0a5.45,5.45,0,0,0,3.83-3.57,12.37,12.37,0,0,0,7,2.19,4.65,4.65,0,0,0,3.68-6.19l-2.67-7.28A4.94,4.94,0,0,0,111.4,205.86Z"/><path class="cls-10" d="M124.87,202.28l1.91,1.21A11.12,11.12,0,0,1,130.3,219h0a11.57,11.57,0,0,1-15.85,3.18L112.54,221A11.1,11.1,0,0,1,109,205.47h0A11.57,11.57,0,0,1,124.87,202.28Z"/><path class="cls-10" d="M121.1,214.9h0a3,3,0,0,1,2.13,3.59l-3.61,11.3a3,3,0,0,1-3.65,2h0a3,3,0,0,1-2.14-3.59l3.61-11.31A3,3,0,0,1,121.1,214.9Z"/><path class="cls-10" d="M125.86,215.49h0a3,3,0,0,1,2.36,3.46l-2.86,11.51a2.94,2.94,0,0,1-3.5,2.25h0a3,3,0,0,1-2.37-3.46l2.86-11.51A3,3,0,0,1,125.86,215.49Z"/><path class="cls-10" d="M110.66,212.9h0a3,3,0,0,1,2.14,3.59l-3.61,11.3a3,3,0,0,1-3.66,2h0a3,3,0,0,1-2.13-3.59l3.61-11.3A3,3,0,0,1,110.66,212.9Z"/><path class="cls-10" d="M115.43,213.49h0a3,3,0,0,1,2.36,3.45l-2.86,11.52a2.94,2.94,0,0,1-3.51,2.25h0a3,3,0,0,1-2.36-3.46l2.86-11.51A2.94,2.94,0,0,1,115.43,213.49Z"/></g></g></svg>